<svg width="31" height="31" viewBox="0 0 31 31" fill="none" xmlns="http://www.w3.org/2000/svg">
<path d="M25.4471 22.0681C26.0516 22.5079 26.4469 23.219 26.4469 24.025C26.4469 25.3619 25.3619 26.4469 24.025 26.4469C23.219 26.4469 22.5079 26.0516 22.0681 25.4471V25.451L18.5206 21.9034C19.9214 21.0897 21.0897 19.9214 21.9034 18.5206L25.451 22.0662H25.4471V22.0681Z" fill="white"/>
<path d="M23.157 13.855C23.157 15.5542 22.6997 17.1488 21.9034 18.5205L18.5031 15.1202L18.0885 15.5349C18.2958 15.0156 18.4101 14.4479 18.4101 13.855C18.4101 11.3382 16.3699 9.29998 13.855 9.29998C11.3402 9.29998 9.29998 11.3382 9.29998 13.855C9.29998 16.3719 11.3382 18.4101 13.855 18.4101C14.4479 18.4101 15.0156 18.2958 15.5349 18.0885L15.1202 18.5031L18.5205 21.9034C17.1488 22.6997 15.5542 23.157 13.855 23.157C8.71679 23.157 4.5531 18.9914 4.5531 13.855C4.5531 8.71873 8.71679 4.5531 13.855 4.5531C18.9933 4.5531 23.157 8.71679 23.157 13.855Z" fill="white"/>
<path d="M18.5031 15.1202L21.9034 18.5206C21.0897 19.9214 19.9214 21.0897 18.5206 21.9034L15.1202 18.5031L15.5349 18.0885C16.6993 17.6274 17.6274 16.6993 18.0885 15.5349L18.5031 15.1202Z" fill="white"/>
</svg>
